REM DIRINDEX 1\2\4,1\2\5,1\3\6,1\3\7,1\3\8
REM DIRNAME cjc092,folder01,folder02,folder03,folder04,folder05,folder06,folder07
TITLE ""
FILE "LEVEL1-017-midashigo.mp3" MP3
  TRACK 01 AUDIO
    TITLE "0:"
    INDEX 01 00:00:00
  TRACK 02 AUDIO
    TITLE "6:cjc092_0667"
    INDEX 01 00:00:05
  TRACK 03 AUDIO
    TITLE "0:"
    INDEX 01 00:02:67
  TRACK 04 AUDIO
    TITLE "7:cjc092_0668"
    INDEX 01 00:03:45
  TRACK 05 AUDIO
    TITLE "8:cjc092_0669"
    INDEX 01 00:04:68
  TRACK 06 AUDIO
    TITLE "0:"
    INDEX 01 00:05:71
  TRACK 07 AUDIO
    TITLE "7:cjc092_0670"
    INDEX 01 00:06:28
  TRACK 08 AUDIO
    TITLE "8:cjc092_0671"
    INDEX 01 00:07:45
  TRACK 09 AUDIO
    TITLE "0:"
    INDEX 01 00:09:20
  TRACK 10 AUDIO
    TITLE "7:cjc092_0672"
    INDEX 01 00:09:49
  TRACK 11 AUDIO
    TITLE "8:cjc092_0673"
    INDEX 01 00:11:19
  TRACK 12 AUDIO
    TITLE "0:"
    INDEX 01 00:13:43
  TRACK 13 AUDIO
    TITLE "7:cjc092_0674"
    INDEX 01 00:14:00
  TRACK 14 AUDIO
    TITLE "8:cjc092_0675"
    INDEX 01 00:15:52
  TRACK 15 AUDIO
    TITLE "0:"
    INDEX 01 00:17:06
  TRACK 16 AUDIO
    TITLE "7:cjc092_0676"
    INDEX 01 00:17:37
  TRACK 17 AUDIO
    TITLE "8:cjc092_0677"
    INDEX 01 00:18:60
  TRACK 18 AUDIO
    TITLE "0:"
    INDEX 01 00:21:45
  TRACK 19 AUDIO
    TITLE "7:cjc092_0678"
    INDEX 01 00:22:01
  TRACK 20 AUDIO
    TITLE "8:cjc092_0679"
    INDEX 01 00:23:44
  TRACK 21 AUDIO
    TITLE "0:"
    INDEX 01 00:25:58
  TRACK 22 AUDIO
    TITLE "7:cjc092_0680"
    INDEX 01 00:26:13
  TRACK 23 AUDIO
    TITLE "8:cjc092_0681"
    INDEX 01 00:27:36
  TRACK 24 AUDIO
    TITLE "0:"
    INDEX 01 00:30:26
  TRACK 25 AUDIO
    TITLE "7:cjc092_0682"
    INDEX 01 00:30:55
  TRACK 26 AUDIO
    TITLE "8:cjc092_0683"
    INDEX 01 00:32:07
  TRACK 27 AUDIO
    TITLE "0:"
    INDEX 01 00:33:30
  TRACK 28 AUDIO
    TITLE "7:cjc092_0684"
    INDEX 01 00:33:64
  TRACK 29 AUDIO
    TITLE "8:cjc092_0685"
    INDEX 01 00:35:06
  TRACK 30 AUDIO
    TITLE "0:"
    INDEX 01 00:36:29
  TRACK 31 AUDIO
    TITLE "7:cjc092_0686"
    INDEX 01 00:36:64
  TRACK 32 AUDIO
    TITLE "8:cjc092_0687"
    INDEX 01 00:38:10
  TRACK 33 AUDIO
    TITLE "0:"
    INDEX 01 00:40:21
  TRACK 34 AUDIO
    TITLE "7:cjc092_0688"
    INDEX 01 00:40:54
  TRACK 35 AUDIO
    TITLE "8:cjc092_0689"
    INDEX 01 00:41:69
  TRACK 36 AUDIO
    TITLE "0:"
    INDEX 01 00:45:49
  TRACK 37 AUDIO
    TITLE "7:cjc092_0690"
    INDEX 01 00:46:04
  TRACK 38 AUDIO
    TITLE "8:cjc092_0691"
    INDEX 01 00:47:21
  TRACK 39 AUDIO
    TITLE "0:"
    INDEX 01 00:48:63
  TRACK 40 AUDIO
    TITLE "7:cjc092_0692"
    INDEX 01 00:49:16
  TRACK 41 AUDIO
    TITLE "8:cjc092_0693"
    INDEX 01 00:50:41
  TRACK 42 AUDIO
    TITLE "0:"
    INDEX 01 00:52:41
  TRACK 43 AUDIO
    TITLE "7:cjc092_0694"
    INDEX 01 00:52:69
  TRACK 44 AUDIO
    TITLE "8:cjc092_0695"
    INDEX 01 00:54:21
  TRACK 45 AUDIO
    TITLE "0:"
    INDEX 01 00:57:35
  TRACK 46 AUDIO
    TITLE "7:cjc092_0696"
    INDEX 01 00:57:68
  TRACK 47 AUDIO
    TITLE "8:cjc092_0697"
    INDEX 01 00:59:22
  TRACK 48 AUDIO
    TITLE "0:"
    INDEX 01 01:01:29
  TRACK 49 AUDIO
    TITLE "7:cjc092_0698"
    INDEX 01 01:01:60
  TRACK 50 AUDIO
    TITLE "8:cjc092_0699"
    INDEX 01 01:03:00
  TRACK 51 AUDIO
    TITLE "0:"
    INDEX 01 01:05:30
  TRACK 52 AUDIO
    TITLE "7:cjc092_0700"
    INDEX 01 01:05:60
  TRACK 53 AUDIO
    TITLE "8:cjc092_0701"
    INDEX 01 01:07:06
  TRACK 54 AUDIO
    TITLE "0:"
    INDEX 01 01:08:36
  TRACK 55 AUDIO
    TITLE "7:cjc092_0702"
    INDEX 01 01:08:64
  TRACK 56 AUDIO
    TITLE "8:cjc092_0703"
    INDEX 01 01:10:10
  TRACK 57 AUDIO
    TITLE "0:"
    INDEX 01 01:12:58
  TRACK 58 AUDIO
    TITLE "7:cjc092_0704"
    INDEX 01 01:13:16
  TRACK 59 AUDIO
    TITLE "8:cjc092_0705"
    INDEX 01 01:14:43
  TRACK 60 AUDIO
    TITLE "0:"
    INDEX 01 01:16:65
